<svg width="19" height="19" viewBox="0 0 19 19" fill="none" xmlns="http://www.w3.org/2000/svg">
<g filter="url(#filter0_i)">
<path d="M18.0901 10.3374C18.5737 10.3374 18.9635 9.94144 18.956 9.45795V9.45795C18.9486 8.98503 18.5631 8.60552 18.0901 8.60552L13.0975 8.60552C12.3398 8.60552 12.0962 8.09136 12.6374 7.55014L16.1824 4.00517C16.525 3.66252 16.522 3.10603 16.1756 2.76717V2.76717C15.8345 2.43352 15.2885 2.43652 14.9511 2.77389L11.4197 6.30533C10.8785 6.84655 10.3643 6.603 10.3643 5.84529L10.3643 0.879579C10.3643 0.393852 9.97053 9.22529e-05 9.48481 9.22953e-05V9.22953e-05C8.99908 9.23378e-05 8.60532 0.393852 8.60532 0.879578L8.60532 5.87235C8.60532 6.63006 8.09116 6.87361 7.54994 6.33239L3.99144 2.77389C3.65626 2.43871 3.11189 2.44177 2.78049 2.7807V2.7807C2.45432 3.11428 2.45732 3.64822 2.78722 3.97811L6.35925 7.55014C6.90047 8.09136 6.65692 8.60553 5.89921 8.60553L0.87948 8.60553C0.395933 8.60553 0.00607492 9.00152 0.0136296 9.48501V9.48501C0.0210192 9.95793 0.406501 10.3374 0.87948 10.3374L5.87215 10.3374C6.62986 10.3374 6.87341 10.8516 6.33219 11.3928L2.78722 14.9378C2.44457 15.2804 2.44762 15.8369 2.79402 16.1758V16.1758C3.13508 16.5094 3.68113 16.5064 4.0185 16.1691L7.54994 12.6376C8.09116 12.0964 8.60532 12.34 8.60532 13.0977L8.60532 18.0634C8.60532 18.5491 8.99908 18.9429 9.48481 18.9429V18.9429C9.97053 18.9429 10.3643 18.5491 10.3643 18.0634L10.3643 13.0706C10.3643 12.3129 10.8785 12.0693 11.4197 12.6106L14.9782 16.1691C15.3134 16.5043 15.8577 16.5012 16.1891 16.1623V16.1623C16.5153 15.8287 16.5123 15.2947 16.1824 14.9648L12.6104 11.3928C12.0691 10.8516 12.3127 10.3374 13.0704 10.3374L18.0901 10.3374Z" fill="white"/>
</g>
<defs>
<filter id="filter0_i" x="0.0136719" y="0" width="18.9426" height="18.9428" filterUnits="userSpaceOnUse" color-interpolation-filters="sRGB">
<feFlood flood-opacity="0" result="BackgroundImageFix"/>
<feBlend mode="normal" in="SourceGraphic" in2="BackgroundImageFix" result="shape"/>
<feColorMatrix in="SourceAlpha" type="matrix" values="0 0 0 0 0 0 0 0 0 0 0 0 0 0 0 0 0 0 127 0" result="hardAlpha"/>
<feOffset/>
<feGaussianBlur stdDeviation="3.5"/>
<feComposite in2="hardAlpha" operator="arithmetic" k2="-1" k3="1"/>
<feColorMatrix type="matrix" values="0 0 0 0 0.45098 0 0 0 0 0.737255 0 0 0 0 0.843137 0 0 0 0.5 0"/>
<feBlend mode="normal" in2="shape" result="effect1_innerShadow"/>
</filter>
</defs>
</svg>
