<svg width="19" height="19" viewBox="0 0 19 19" fill="none" xmlns="http://www.w3.org/2000/svg">
<path d="M18.09 10.3373C18.5736 10.3373 18.9634 9.94135 18.9559 9.45786C18.9485 8.98494 18.563 8.60543 18.09 8.60543H13.0974C12.3397 8.60543 12.0961 8.09127 12.6373 7.55005L16.1823 4.00508C16.5249 3.66243 16.5219 3.10594 16.1755 2.76708C15.8344 2.43343 15.2884 2.43643 14.951 2.7738L11.4196 6.30524C10.8784 6.84646 10.3642 6.60291 10.3642 5.8452V0.879487C10.3642 0.39376 9.97044 -4.24e-08 9.48472 0C8.99899 4.25e-08 8.60523 0.39376 8.60523 0.879486V5.87226C8.60523 6.62997 8.09107 6.87352 7.54985 6.3323L3.99135 2.7738C3.65617 2.43862 3.1118 2.44168 2.7804 2.78061C2.45423 3.11419 2.45723 3.64813 2.78713 3.97802L6.35916 7.55005C6.90038 8.09127 6.65683 8.60544 5.89912 8.60544H0.879386C0.395839 8.60544 0.00598103 9.00143 0.0135357 9.48492C0.0209253 9.95784 0.406407 10.3373 0.879386 10.3373H5.87206C6.62977 10.3373 6.87332 10.8515 6.3321 11.3927L2.78713 14.9377C2.44448 15.2803 2.44753 15.8368 2.79393 16.1757C3.13499 16.5093 3.68104 16.5063 4.01841 16.169L7.54985 12.6375C8.09107 12.0963 8.60523 12.3399 8.60523 13.0976V18.0633C8.60523 18.549 8.99899 18.9428 9.48472 18.9428C9.97044 18.9428 10.3642 18.549 10.3642 18.0633V13.0705C10.3642 12.3128 10.8784 12.0692 11.4196 12.6105L14.9781 16.169C15.3133 16.5042 15.8576 16.5011 16.189 16.1622C16.5152 15.8286 16.5122 15.2946 16.1823 14.9647L12.6103 11.3927C12.069 10.8515 12.3126 10.3373 13.0703 10.3373H18.09Z" fill="#F32104"/>
</svg>
