<svg width="229" height="270" viewBox="0 0 229 270" fill="none" xmlns="http://www.w3.org/2000/svg">
<path d="M115 237.3V266.74Z" fill="white"/>
<path d="M115 237.3V266.74" stroke="#FCFCFC" stroke-miterlimit="10"/>
<path d="M115 3V32.44Z" fill="white"/>
<path d="M115 3V32.44" stroke="#FCFCFC" stroke-miterlimit="10"/>
<path d="M42.571 207.299L21.7538 228.116Z" fill="white"/>
<path d="M42.571 207.299L21.7538 228.116" stroke="#FCFCFC" stroke-miterlimit="10"/>
<path d="M208.246 41.6238L187.429 62.4411Z" fill="white"/>
<path d="M208.246 41.6238L187.429 62.4411" stroke="#FCFCFC" stroke-miterlimit="10"/>
<path d="M116.64 135.3C116.644 135.76 116.511 136.21 116.259 136.594C116.006 136.978 115.645 137.279 115.222 137.458C114.798 137.636 114.331 137.685 113.88 137.598C113.428 137.511 113.013 137.291 112.687 136.968C112.36 136.644 112.137 136.231 112.046 135.78C111.955 135.329 112 134.862 112.175 134.437C112.35 134.012 112.647 133.648 113.029 133.392C113.411 133.137 113.86 133 114.32 133C114.623 132.999 114.924 133.057 115.205 133.172C115.485 133.287 115.741 133.456 115.956 133.67C116.172 133.883 116.343 134.137 116.46 134.417C116.578 134.697 116.639 134.997 116.64 135.3V135.3Z" fill="#FCFCFC"/>
<path d="M181.77 115.83H186.37C186.33 130.583 186.33 145.327 186.37 160.06H181.77" stroke="#FCFCFC" stroke-miterlimit="10"/>
<path d="M47.34 160.05H42.77C42.83 145.31 42.83 130.567 42.77 115.82H47.37" stroke="#FCFCFC" stroke-miterlimit="10"/>
</svg>
