<svg width="236" height="590" fill="none" xmlns="http://www.w3.org/2000/svg">
  <path d="M86.6601 55.45l-5.83-.33c32.4929 161.6 32.1599 323.207-1 484.82l2.92-.17M135.31 294.62l2.76 2.89-2.77 2.89-2.75-2.89 2.76-2.89zM121.56 481.71l2.43 2.77-3.29 3-2.43-2.77 3.29-3zM149.34 297.5h4.6M57.8799 276.9l-.09-4.92c-18.72-.12-37.4367-.247-56.15-.38 0 1.67.07 3.33.1 5M1.64 318.57c0 1.66-.08 3.33-.13 5l56.16-.46.12-4.92" stroke="#fff" stroke-miterlimit="10"/>
  <path d="M100.61 6.11c.55 2.42 0 4.8-2.59 4.64-2.59-.16-4.25-2.69-4.82-5.11-.57-2.42 0-4.8 2.57-4.63 2.57.17 4.28 2.68 4.84 5.1zm-6.22-.39a7.9967 7.9967 0 00.73 2 410.4703 410.4703 0 012.75-4.7 2.8802 2.8802 0 00-1.85-.92c-1.62-.16-2.14 1.47-1.63 3.62zm5 .32a8.0022 8.0022 0 00-.7-1.91l-2.75 4.69a2.81 2.81 0 001.81.88c1.63.1 2.17-1.47 1.67-3.66h-.03zM109.32 10.29c.08.34.15.69.23 1l-6.13-.37-.24-1 2.47.15a885.481 885.481 0 00-1.53-6.75 2.046 2.046 0 01-.851.5657 2.0516 2.0516 0 01-1.019.0843l-.24-1c1.61.1 1.88-.76 1.83-1.3l1.09.07c.65 2.81 1.28 5.61 1.91 8.41l2.48.14zM100.61 584.02c-.56 2.42-2.25 4.94-4.84 5.11-2.59.17-3.13-2.21-2.57-4.64.56-2.43 2.24-4.94 4.82-5.1 2.58-.16 3.14 2.18 2.59 4.63zm-6.22.4a6.074 6.074 0 00-.17 1.92l5-5.2a1.5176 1.5176 0 00-.6359-.572 1.5163 1.5163 0 00-.8441-.138c-1.56.14-2.84 1.8-3.35 3.99zm5-.32a6.3977 6.3977 0 00.17-1.88l-5 5.19c.1527.241.3714.434.6303.554a1.49 1.49 0 00.8297.126c1.61-.11 2.9-1.8 3.4-3.99h-.03zM107.9 587.21l-.24 1-6.4.39c0-.18.08-.36.13-.54.44-1.92 1.66-3.19 4.11-4.3 1.09-.5 2-1.1 2.27-2.19.27-1.09-.36-1.78-1.46-1.71-.585.054-1.144.27-1.614.623-.469.353-.832.83-1.046 1.377l-1-.37c.358-.743.905-1.38 1.586-1.847a4.7313 4.7313 0 012.294-.813c1.13-.07 2.93.38 2.42 2.68-.41 1.8-2 2.68-3.69 3.46a4.182 4.182 0 00-1.54 1.017c-.431.45-.756.991-.95 1.583l5.13-.36z" fill="#fff"/>
  <path d="M178.09 296.57h20M204.7 214.85c10.4 8.38 20.693 16.713 30.88 25M235.48 353.18c-10.227 8.6-20.56 17.267-31 26" stroke="#fff" stroke-miterlimit="10"/>
  <path d="M121.12 498.49a2.479 2.479 0 01-2.23 2c-.237.02-.475-.016-.695-.105-.22-.09-.416-.229-.572-.409a1.4988 1.4988 0 01-.325-.623 1.505 1.505 0 01-.008-.703 2.4796 2.4796 0 012.22-2 1.5 1.5 0 01.698.102c.222.088.419.228.576.407.157.18.27.394.328.625.058.232.061.473.008.706z" fill="#fff"/>
  <path d="M122.34 113.79l-3.27-3 2.43-2.77 3.28 3-2.44 2.77z" stroke="#fff" stroke-miterlimit="10"/>
  <path d="M117.66 96.81a1.5077 1.5077 0 01.013-.7036c.059-.2303.171-.4435.328-.6225.156-.1789.353-.3187.573-.4079.221-.0893.459-.1256.696-.106a2.4705 2.4705 0 011.447.6262c.401.3612.672.8437.773 1.3738.05.2328.046.4741-.013.7047-.06.2307-.172.4444-.328.624a1.5301 1.5301 0 01-1.269.5213 2.469 2.469 0 01-1.449-.6302 2.4719 2.4719 0 01-.771-1.3798z" fill="#fff"/>
</svg>
