<svg width="236" height="590" fill="none" xmlns="http://www.w3.org/2000/svg">
  <path d="M149.88 55.45l5.83-.33c-32.493 161.6-32.16 323.207 1 484.82l-2.92-.17M101.23 294.62l-2.76 2.89 2.77 2.89 2.75-2.89-2.76-2.89zM114.98 481.71l-2.43 2.77 3.29 3 2.43-2.77-3.29-3zM87.2001 297.5h-4.6M178.66 276.9l.09-4.92c18.72-.12 37.437-.247 56.15-.38 0 1.67-.07 3.33-.1 5M234.9 318.57c0 1.66.08 3.33.13 5l-56.16-.46-.12-4.92" stroke="#FCFCFC" stroke-miterlimit="10"/>
  <path d="M133.11 8.14l-3.21.2c-.54 1-1.08 1.94-1.61 2.91l-1.26.07c1.83-3.22 3.68-6.43 5.55-9.66l.88-.05c.413 3.08.827 6.16 1.24 9.24l-1.26.08-.33-2.79zm-.12-1c-.14-1.2-.28-2.4-.41-3.6-.71 1.25-1.4 2.51-2.1 3.76l2.51-.16zM135.45 585.87a1.997 1.997 0 01-.348 1.94c-.22.266-.506.47-.829.593-.322.122-.672.159-1.013.107l-3.36-.21c-.72-3.15-1.43-6.29-2.13-9.44l3.15.19a3.49 3.49 0 012.036.756c.581.463.999 1.098 1.194 1.814.123.329.12.693-.009 1.02-.13.327-.376.594-.691.75.485.254.914.606 1.258 1.032.344.427.596.92.742 1.448zm-6.26-5.9c.2.92.41 1.83.62 2.75l2.08.13c1.14.07 1.19-.79 1.08-1.3-.1-.419-.339-.792-.679-1.058a1.902 1.902 0 00-1.191-.402l-1.91-.12zm5.07 5.83a2.52 2.52 0 00-2.49-1.93l-1.7-.11.81 3.58 2 .12c1.56.11 1.5-1.15 1.38-1.66z" fill="#fff"/>
  <path d="M58.45 296.57h-20M31.84 214.85c-10.4 8.38-20.6934 16.713-30.88 25M1.06 353.18a20469.262 20469.262 0 0031.0001 26" stroke="#FCFCFC" stroke-miterlimit="10"/>
  <path d="M115.42 498.49a2.479 2.479 0 002.23 2c.237.02.475-.016.695-.105.22-.09.416-.229.572-.409a1.5105 1.5105 0 00.333-1.326 2.4776 2.4776 0 00-.775-1.372 2.4823 2.4823 0 00-1.445-.628c-.238-.022-.477.013-.698.102-.222.088-.419.228-.576.407-.157.18-.27.394-.328.625-.058.232-.061.473-.008.706z" fill="#FCFCFC"/>
  <path d="M114.2 113.79l3.27-3-2.43-2.77-3.28 3 2.44 2.77z" stroke="#FCFCFC" stroke-miterlimit="10"/>
  <path d="M118.88 96.81a1.5077 1.5077 0 00-.013-.7036 1.5127 1.5127 0 00-.328-.6225 1.5172 1.5172 0 00-.573-.4079 1.5217 1.5217 0 00-.696-.106 2.4705 2.4705 0 00-1.447.6262 2.4704 2.4704 0 00-.773 1.3738c-.05.2328-.046.4741.013.7047.06.2307.172.4444.328.624a1.5301 1.5301 0 001.269.5213 2.469 2.469 0 001.449-.6302c.401-.3631.672-.8479.771-1.3798z" fill="#FCFCFC"/>
</svg>
