<svg width="1134" height="238" viewBox="0 0 1134 238" fill="none" xmlns="http://www.w3.org/2000/svg">
<path fill-rule="evenodd" clip-rule="evenodd" d="M138.185 3.49201L133.641 23.484H70.9848L52.3405 103.98H108.63L104.055 123.654H47.7733L22.3333 234H0.910645L54.1299 3.49201H138.185ZM45.3862 120.654H101.672L104.852 106.98H48.5662L68.6002 20.484H131.246L134.426 6.49201H56.5162L4.6822 231H19.9462L45.3862 120.654ZM168.271 3.49201L115.052 234H93.63L146.849 3.49201H168.271ZM149.236 6.49201H164.5L112.666 231H97.4016L149.236 6.49201ZM267.502 13.9671L267.51 13.9759C273.25 20.0746 275.957 28.8339 275.957 37.656C275.957 42.6576 275.295 48.6039 273.974 54.223C273.973 54.2297 273.971 54.2364 273.97 54.2431L268.89 77.1028L268.888 77.1098L268.887 77.1169C264.099 98.1837 260.427 106.409 251.618 113.457L251.605 113.467L251.592 113.477C244.475 119.046 236.803 122.05 226.816 123.306L244.68 234H223.024L205.216 124.608H185.671L160.549 234H138.806L192.025 3.49201H229.709C240.244 3.49201 247.737 4.04253 253.552 5.62447C259.529 7.25047 263.652 9.94194 267.493 13.9583L267.502 13.9671ZM183.281 121.608H207.767L225.575 231H241.157L223.349 120.654C224.372 120.566 225.367 120.463 226.338 120.342C235.935 119.15 243.101 116.312 249.743 111.114C257.693 104.754 261.191 97.44 265.961 76.452L271.049 53.556C272.321 48.15 272.957 42.426 272.957 37.656C272.957 29.388 270.413 21.438 265.325 16.032C258.329 8.718 250.697 6.49201 229.709 6.49201H194.411L142.577 231H158.159L183.281 121.608ZM252.228 50.6449L252.239 50.6024C253.145 46.9781 253.739 42.4552 253.739 39.564C253.739 33.1801 251.73 28.8606 248.318 26.4232L248.116 26.2789L247.94 26.1033C247.189 25.3521 246.216 24.914 244.61 24.2695C241.004 23.1694 238.475 22.848 227.801 22.848H209.201L190.231 105.252H204.587C224.692 105.252 229.477 104.231 235.28 100.087L235.291 100.079L235.303 100.07C240.62 96.3484 243.312 91.4072 247.13 73.9045L252.228 50.6449ZM186.461 108.252L206.813 19.848H227.801C238.613 19.848 241.475 20.166 245.609 21.438C247.199 22.074 248.789 22.71 250.061 23.982C254.513 27.162 256.739 32.568 256.739 39.564C256.739 42.744 256.103 47.514 255.149 51.33L250.061 74.544C246.245 92.034 243.383 98.076 237.023 102.528C230.345 107.298 224.621 108.252 204.587 108.252H186.461ZM277.114 175.668C276.569 177.985 276.14 179.893 275.804 181.392C275.355 183.391 275.07 184.663 274.888 185.208C273.934 189.342 273.298 194.43 273.298 197.292C273.298 212.556 283.474 221.142 300.964 221.142C312.412 221.142 320.68 217.962 326.404 211.284C333.718 202.698 339.124 184.254 339.124 167.082C339.124 155.316 334.99 144.504 325.45 131.466L306.688 106.026C297.784 93.942 293.332 80.586 293.332 67.23C293.332 58.326 295.558 45.924 299.374 36.066C307.96 13.17 322.27 3.31201 345.166 3.31201C368.698 3.31201 382.372 14.124 382.372 32.886C382.372 38.928 381.736 42.744 378.874 55.146L375.058 71.364H359.794L364.564 51.33C366.472 43.698 366.79 41.154 366.79 37.338C366.79 22.71 359.476 16.35 342.94 16.35C331.492 16.35 324.496 20.166 318.772 30.024C313.048 39.564 308.596 56.418 308.596 67.548C308.596 76.77 312.412 86.628 319.726 96.804L337.852 122.244C345.484 133.056 348.982 139.098 351.208 145.776C353.116 151.818 354.388 158.814 354.388 166.128C354.388 188.706 346.438 211.602 334.99 222.096C326.404 229.728 313.366 234.498 300.01 234.498C273.934 234.498 258.034 221.142 258.034 198.882C258.034 191.886 258.352 189.024 262.168 172.806L265.666 157.542H281.248L277.114 175.668ZM296.57 34.9986C292.628 45.1884 290.332 57.9487 290.332 67.23C290.332 81.2741 295.018 95.2458 304.273 107.806L304.273 107.807L323.029 133.238C323.03 133.239 323.031 133.24 323.032 133.242C332.328 145.948 336.124 156.15 336.124 167.082C336.124 175.373 334.816 183.996 332.625 191.569C330.419 199.193 327.392 205.497 324.122 209.336C319.134 215.153 311.825 218.142 300.964 218.142C292.67 218.142 286.539 216.104 282.524 212.663C278.578 209.28 276.298 204.218 276.298 197.292C276.298 194.74 276.882 189.954 277.784 185.999C277.996 185.311 278.258 184.153 278.57 182.766C278.621 182.538 278.675 182.299 278.731 182.049C279.067 180.55 279.492 178.657 280.034 176.355L280.036 176.345L285.009 154.542H263.276L259.248 172.119C259.247 172.122 259.246 172.125 259.245 172.129C255.418 188.395 255.034 191.531 255.034 198.882C255.034 210.779 259.314 220.565 267.305 227.328C275.234 234.036 286.491 237.498 300.01 237.498C314.013 237.498 327.786 232.513 336.983 224.338L337 224.323L337.017 224.307C343.236 218.607 348.303 209.757 351.816 199.626C355.344 189.452 357.388 177.752 357.388 166.128C357.388 158.474 356.058 151.173 354.069 144.873L354.061 144.85L354.054 144.827C351.682 137.712 347.968 131.374 340.303 120.514L322.169 95.0632L322.162 95.0531C315.073 85.1901 311.596 75.936 311.596 67.548C311.596 62.325 312.65 55.6017 314.434 48.9691C316.22 42.3317 318.674 36.0187 321.344 31.5675L321.355 31.549L321.366 31.5304C324.044 26.919 326.878 23.9581 330.178 22.1064C333.486 20.2495 337.544 19.35 342.94 19.35C350.924 19.35 356 20.9041 359.087 23.6134C362.084 26.2432 363.79 30.488 363.79 37.338C363.79 40.8021 363.535 43.076 361.653 50.6024L361.649 50.6188L355.996 74.364H377.434L381.794 55.8331L381.797 55.8206C384.663 43.4023 385.372 39.2975 385.372 32.886C385.372 29.541 384.967 26.3981 384.169 23.484H422.146L373.491 234H395.55L444.204 23.484H481.737L486.28 3.49201H388.543L384.076 23.1499C382.416 17.343 379.178 12.4596 374.458 8.7135C367.391 3.10387 357.342 0.312012 345.166 0.312012C333.283 0.312012 323.322 2.87473 315.168 8.6557C307.028 14.4271 301.003 23.1841 296.57 34.9986ZM441.818 20.484H479.342L482.522 6.49201H390.938L387.758 20.484H425.918L377.264 231H393.164L441.818 20.484ZM551.988 14.5923L551.991 14.5887C560.628 5.60695 572.61 1.266 586.908 1.266C600.497 1.266 611.58 4.28809 619.328 10.3733C627.183 16.5414 631.248 25.5732 631.248 36.702C631.248 43.0745 629.601 53.822 627.678 62.4748L627.673 62.5014L622.66 83.268H601.287L606.239 61.1732C608.785 49.7166 609.666 44.2853 609.666 39.246C609.666 33.5202 607.606 29.1665 603.967 26.1828C600.252 23.1371 594.565 21.258 586.908 21.258C578.563 21.258 572.652 23.3952 568.152 27.8604C563.534 32.443 560.046 39.8226 557.392 51.0654L531.317 162.36L531.316 162.363L528.769 173.188C526.896 180.991 525.99 187.741 525.99 193.158C525.99 200.826 528.262 206.485 532.149 210.239C536.051 214.006 541.975 216.234 550.02 216.234C557.865 216.234 563.736 214.422 567.771 210.925L567.809 210.892L567.848 210.86C573.622 206.186 576.654 200.509 581.43 178.219L581.431 178.216L586.393 155.178H607.813L602.877 177.581C602.877 177.581 602.876 177.582 602.876 177.582C598.424 197.935 596.453 204.625 592.453 212.626L592.447 212.638L592.441 212.65C584.836 227.515 568.727 236.226 549.702 236.226C536.135 236.226 524.723 232.501 516.654 225.517C508.538 218.492 504.09 208.409 504.09 196.338C504.09 187.386 504.478 183.924 509.576 162.577C509.577 162.575 509.577 162.572 509.578 162.569L535.328 52.5772C535.328 52.5738 535.329 52.5705 535.33 52.5671C539.817 32.6997 544.1 22.8232 551.988 14.5923ZM538.254 53.238L512.496 163.266C507.408 184.572 507.09 187.752 507.09 196.338C507.09 218.916 523.626 233.226 549.702 233.226C567.828 233.226 582.774 224.958 589.77 211.284C593.586 203.652 595.494 197.292 599.946 176.94L604.08 158.178H588.816L584.364 178.848C579.594 201.108 576.414 207.786 569.736 213.192C564.966 217.326 558.288 219.234 550.02 219.234C532.848 219.234 522.99 209.694 522.99 193.158C522.99 187.434 523.944 180.438 525.852 172.488L554.472 50.376C559.878 27.48 569.1 18.258 586.908 18.258C603.126 18.258 612.666 26.208 612.666 39.246C612.666 44.652 611.712 50.376 609.168 61.824L605.034 80.268H620.298L624.75 61.824C626.658 53.238 628.248 42.744 628.248 36.702C628.248 16.032 613.302 4.266 586.908 4.266C573.234 4.266 562.104 8.40001 554.154 16.668C546.84 24.3 542.706 33.522 538.254 53.238ZM735.061 13.9671L735.069 13.9759C740.809 20.0746 743.517 28.8339 743.517 37.656C743.517 42.6583 742.854 48.6056 741.533 54.2254C741.532 54.2313 741.53 54.2372 741.529 54.2431L736.449 77.1028L736.446 77.1169C731.658 98.1837 727.987 106.409 719.177 113.457L719.164 113.467L719.152 113.477C712.035 119.046 704.363 122.05 694.376 123.306L712.24 234H690.584L672.776 124.608H653.23L628.108 234H606.365L659.584 3.49201H697.269C707.803 3.49201 715.297 4.04253 721.111 5.62447C727.088 7.25047 731.211 9.94194 735.053 13.9583L735.061 13.9671ZM650.841 121.608H675.327L693.135 231H708.717L690.909 120.654C691.931 120.566 692.927 120.463 693.897 120.342C703.494 119.15 710.661 116.312 717.303 111.114C725.253 104.754 728.751 97.44 733.521 76.452L738.609 53.556C739.881 48.15 740.517 42.426 740.517 37.656C740.517 29.388 737.973 21.438 732.885 16.032C725.889 8.718 718.257 6.49201 697.269 6.49201H661.971L610.137 231H625.719L650.841 121.608ZM719.788 50.6449L719.798 50.6024C720.704 46.9781 721.299 42.4552 721.299 39.564C721.299 33.1801 719.289 28.8606 715.877 26.4232L715.675 26.2789L715.499 26.1033C714.748 25.3521 713.776 24.914 712.17 24.2695C708.564 23.1694 706.034 22.848 695.361 22.848H676.761L657.79 105.252H672.147C692.251 105.252 697.036 104.231 702.839 100.087L702.851 100.079L702.862 100.07C708.179 96.3484 710.871 91.4072 714.69 73.9045L714.69 73.9017L719.788 50.6449ZM654.021 108.252L674.373 19.848H695.361C706.173 19.848 709.035 20.166 713.169 21.438C714.759 22.074 716.349 22.71 717.621 23.982C722.073 27.162 724.299 32.568 724.299 39.564C724.299 42.744 723.663 47.514 722.709 51.33L717.621 74.544C713.805 92.034 710.943 98.076 704.583 102.528C697.905 107.298 692.181 108.252 672.147 108.252H654.021ZM793.601 3.49201L740.381 234H718.96L772.179 3.49201H793.601ZM774.565 6.49201H789.829L737.995 231H722.731L774.565 6.49201ZM944.952 3.49201L894.018 234H872.886L914.811 53.5077L838.585 234H819.17L826.008 51.8475L785.256 234H763.468L818.646 3.49201H847.037L839.339 187.37L916.325 3.49201H944.952ZM918.321 6.49201H941.217L891.609 231H876.663L925.635 20.166L836.595 231H822.285L830.235 19.212L782.853 231H767.271L821.013 6.49201H843.909L835.641 203.97L918.321 6.49201ZM1051.55 3.49201L1047.01 23.484H984.986L966.342 103.98H1018.18L1013.6 123.654H961.774L940.9 214.008H1004.8L1000.26 234H914.912L968.131 3.49201H1051.55ZM937.128 217.008L959.388 120.654H1011.22L1014.4 106.98H962.568L982.602 20.484H1044.61L1047.79 6.49201H970.518L918.684 231H997.866L1001.05 217.008H937.128ZM1054.84 106.026C1045.94 93.942 1041.49 80.586 1041.49 67.23C1041.49 58.326 1043.71 45.924 1047.53 36.066C1056.12 13.17 1070.43 3.31201 1093.32 3.31201C1116.85 3.31201 1130.53 14.124 1130.53 32.886C1130.53 38.928 1129.89 42.744 1127.03 55.146L1123.21 71.364H1107.95L1112.72 51.33C1114.63 43.698 1114.95 41.154 1114.95 37.338C1114.95 22.71 1107.63 16.35 1091.1 16.35C1079.65 16.35 1072.65 20.166 1066.93 30.024C1061.2 39.564 1056.75 56.418 1056.75 67.548C1056.75 76.77 1060.57 86.628 1067.88 96.804L1086.01 122.244C1093.64 133.056 1097.14 139.098 1099.36 145.776C1101.27 151.818 1102.54 158.814 1102.54 166.128C1102.54 188.706 1094.59 211.602 1083.15 222.096C1074.56 229.728 1061.52 234.498 1048.17 234.498C1022.09 234.498 1006.19 221.142 1006.19 198.882C1006.19 191.886 1006.51 189.024 1010.32 172.806L1013.82 157.542H1029.4L1025.27 175.668C1024.73 177.985 1024.3 179.893 1023.96 181.393C1023.51 183.391 1023.23 184.663 1023.04 185.208C1022.09 189.342 1021.45 194.43 1021.45 197.292C1021.45 212.556 1031.63 221.142 1049.12 221.142C1060.57 221.142 1068.84 217.962 1074.56 211.284C1081.87 202.698 1087.28 184.254 1087.28 167.082C1087.28 155.316 1083.15 144.504 1073.61 131.466L1054.84 106.026ZM1071.19 133.238L1052.43 107.807L1052.43 107.806C1043.18 95.2458 1038.49 81.2741 1038.49 67.23C1038.49 57.9503 1040.78 45.193 1044.73 35.004C1049.16 23.1867 1055.18 14.428 1063.33 8.6557C1071.48 2.87473 1081.44 0.312012 1093.32 0.312012C1105.5 0.312012 1115.55 3.10387 1122.62 8.7135C1129.78 14.3999 1133.53 22.7067 1133.53 32.886C1133.53 39.2975 1132.82 43.4023 1129.95 55.8206L1129.95 55.8331L1125.59 74.364H1104.15L1109.81 50.6188L1109.81 50.6024C1111.69 43.076 1111.95 40.8021 1111.95 37.338C1111.95 30.488 1110.24 26.2432 1107.24 23.6134C1104.16 20.9041 1099.08 19.35 1091.1 19.35C1085.7 19.35 1081.64 20.2495 1078.33 22.1064C1075.04 23.9581 1072.2 26.919 1069.52 31.5304L1069.51 31.549L1069.5 31.5675C1066.83 36.0187 1064.38 42.3317 1062.59 48.9691C1060.81 55.6017 1059.75 62.325 1059.75 67.548C1059.75 75.936 1063.23 85.1901 1070.32 95.0531L1070.33 95.0632L1088.45 120.503L1088.46 120.514C1096.13 131.374 1099.84 137.712 1102.21 144.827L1102.22 144.85L1102.23 144.873C1104.22 151.173 1105.54 158.474 1105.54 166.128C1105.54 177.752 1103.5 189.452 1099.97 199.626C1096.46 209.757 1091.39 218.607 1085.17 224.307L1085.16 224.323L1085.14 224.338C1075.94 232.513 1062.17 237.498 1048.17 237.498C1034.65 237.498 1023.39 234.036 1015.46 227.328C1007.47 220.565 1003.19 210.779 1003.19 198.882C1003.19 191.53 1003.58 188.394 1007.4 172.121C1007.4 172.12 1007.4 172.12 1007.4 172.119L1011.43 154.542H1033.17L1028.2 176.335L1028.19 176.345L1028.19 176.355C1027.65 178.654 1027.23 180.546 1026.89 182.044L1026.73 182.766C1026.41 184.153 1026.15 185.311 1025.94 185.999C1025.04 189.955 1024.45 194.74 1024.45 197.292C1024.45 204.218 1026.73 209.28 1030.68 212.663C1034.7 216.104 1040.83 218.142 1049.12 218.142C1059.98 218.142 1067.29 215.154 1072.28 209.339C1075.55 205.5 1078.58 199.195 1080.78 191.569C1082.97 183.996 1084.28 175.373 1084.28 167.082C1084.28 156.149 1080.48 145.946 1071.19 133.238Z" fill="black"/>
</svg>
